# xmcd
#
# Track frame offsets:
#   150
#   14985
#   24265
#   39765
#   54220
#   66057
#   80060
#   100132
#   112962
#   128127
#   138990
#   150205
#   159682
#   179545
#   190997
#   202285
#   216700
#   225605
#
# Disc length: 3165 seconds
#
# Revision: 0
# Processed by: cddbd v1.5.1PL2 Copyright (c) Steve Scherf et al.
# Submitted via: uFREEDB ActiveX Control 1.5
#
DISCID=f90c5b12
DTITLE=Dino Franco e Mourai - Caboclo na cidade
DYEAR=1900
DGENRE=Country
TTITLE0=Caboclo na Cidade
TTITLE1=Por um Rosto Lindo
TTITLE2=Juras Mentirosas
TTITLE3=Rancho da Boa Paz
TTITLE4=Garimpo de Goiás
TTITLE5=Fonte da Vida
TTITLE6=A Sementinha
TTITLE7=Amor e Saudade
TTITLE8=Vida de um Boiadeiro
TTITLE9=Taquaritinga
TTITLE10=Garça Branca Feiticeira
TTITLE11=Minha Culpa
TTITLE12=Três Namoradas
TTITLE13=Mestiça da Fronteira
TTITLE14=Cara ou Coroa
TTITLE15=Arrependimento
TTITLE16=Cicatrizes da Alma
TTITLE17=Sertanejo sem Mistura
EXTD=
EXTT0=
EXTT1=
EXTT2=
EXTT3=
EXTT4=
EXTT5=
EXTT6=
EXTT7=
EXTT8=
EXTT9=
EXTT10=
EXTT11=
EXTT12=
EXTT13=
EXTT14=
EXTT15=
EXTT16=
EXTT17=
PLAYORDER=
